<svg width="64px" height="64px" viewBox="0 0 64 64" xmlns="http://www.w3.org/2000/svg" xmlns:xlink="http://www.w3.org/1999/xlink" aria-hidden="true" role="img" class="iconify iconify--emojione" preserveAspectRatio="xMidYMid meet"><g fill="#2a5f9e"><path d="M32 2C16.8 2 4.2 13.3 2.3 28h59.5C59.8 13.3 47.2 2 32 2z"></path><path d="M32 62c15.2 0 27.8-11.3 29.7-26H2.3C4.2 50.7 16.8 62 32 62z"></path></g><path d="M61.7 28H2.3c-.2 1.3-.3 2.6-.3 4s.1 2.7.3 4h59.5c.2-1.3.3-2.6.3-4s-.2-2.7-.4-4" fill="#ffe62e"></path><path fill="#fff" d="M16 41.2l1.2-2.2l.3 2.5l1.9-1.6l-.7 2.4l2.4-.7l-1.6 1.9l2.5.3l-2.2 1.2l2.2 1.2l-2.5.3l1.6 1.9l-2.4-.7l.7 2.4l-1.9-1.6l-.3 2.5l-1.2-2.2l-1.2 2.2l-.3-2.5l-1.9 1.6l.7-2.4l-2.4.7l1.6-1.9l-2.5-.3l2.2-1.2l-2.2-1.2l2.5-.3l-1.6-1.9l2.4.7l-.7-2.4l1.9 1.6l.3-2.5z"></path></svg>