<svg width="64px" height="64px" viewBox="0 0 64 64" xmlns="http://www.w3.org/2000/svg" xmlns:xlink="http://www.w3.org/1999/xlink" aria-hidden="true" role="img" class="iconify iconify--emojione" preserveAspectRatio="xMidYMid meet"><circle cx="32" cy="32" r="30" fill="#428bc1"></circle><g fill="#fff"><path d="M32.8 21.6l2.4 1.8l-.9-2.9l2.4-1.9h-3l-.9-2.9l-.9 2.9h-3l2.4 1.9l-.9 2.9z"></path><path d="M32.8 42.4l2.4-1.8l-.9 2.9l2.4 1.9h-3l-.9 2.9l-.9-2.9h-3l2.4-1.9l-.9-2.9z"></path><path d="M21.9 29.9l2.4-1.8l-.9 3l2.4 1.8h-3l-.9 3l-.9-3h-3l2.4-1.8l-.9-3z"></path><path d="M42.1 29.9l-2.4-1.8l.9 3l-2.4 1.8h3l.9 3l.9-3h3l-2.4-1.8l.9-3z"></path></g></svg>