<?xml version="1.0" encoding="iso-8859-1"?>
<!-- Generator: Adobe Illustrator 19.0.0, SVG Export Plug-In . SVG Version: 6.00 Build 0)  -->
<svg version="1.1" id="Layer_1" xmlns="http://www.w3.org/2000/svg" xmlns:xlink="http://www.w3.org/1999/xlink" x="0px" y="0px"
	 viewBox="0 0 512 512" style="enable-background:new 0 0 512 512;" xml:space="preserve">
<g>
	<polygon style="fill:#33A6F2;" points="512,42.16 0,42.16 0,116.053 256,138.809 512,116.053 	"/>
	<polygon style="fill:#33A6F2;" points="0,469.84 512,469.84 512,395.947 256,373.191 0,395.947 	"/>
</g>
<rect y="116.053" style="fill:#FFEED1;" width="512" height="279.893"/>
<path style="fill:#33A6F2;" d="M347.336,299.283L322.346,256l25.29-43.804c1.627-2.817,1.627-6.285,0-9.102
	c-1.626-2.817-4.63-4.551-7.883-4.551h-50.581l-25.291-43.804c-1.626-2.817-4.63-4.551-7.883-4.551s-6.257,1.734-7.883,4.551
	l-25.291,43.804h-50.582c-3.252,0-6.257,1.734-7.883,4.551c-1.627,2.817-1.627,6.285,0,9.102L189.653,256l-25.291,43.804
	c-1.627,2.817-1.627,6.285,0,9.102c1.626,2.817,4.63,4.551,7.883,4.551h50.582l25.291,43.804c1.626,2.817,4.63,4.551,7.883,4.551
	s6.257-1.734,7.883-4.551l25.29-43.804h50.582c5.049,0,9.125-4.076,9.125-9.102C348.879,302.478,348.311,300.733,347.336,299.283z
	 M323.989,216.747l-12.153,21.049l-12.153-21.049H323.989z M301.326,256l-22.662,39.253h-45.326L210.674,256l22.662-39.253h45.326
	L301.326,256z M256,177.493l12.153,21.049h-24.305L256,177.493z M188.011,216.747h24.306l-12.154,21.049L188.011,216.747z
	 M188.011,295.253l12.153-21.049l12.153,21.049H188.011z M256,334.507l-12.153-21.049h24.305L256,334.507z M299.683,295.253
	l12.153-21.049l12.153,21.049H299.683z"/>
<g>
</g>
<g>
</g>
<g>
</g>
<g>
</g>
<g>
</g>
<g>
</g>
<g>
</g>
<g>
</g>
<g>
</g>
<g>
</g>
<g>
</g>
<g>
</g>
<g>
</g>
<g>
</g>
<g>
</g>
</svg>
