<?xml version="1.0" encoding="iso-8859-1"?>
<!-- Generator: Adobe Illustrator 19.0.0, SVG Export Plug-In . SVG Version: 6.00 Build 0)  -->
<svg version="1.1" id="Layer_1" xmlns="http://www.w3.org/2000/svg" xmlns:xlink="http://www.w3.org/1999/xlink" x="0px" y="0px"
	 viewBox="0 0 512 512" style="enable-background:new 0 0 512 512;" xml:space="preserve">
<path style="fill:#3EAFF5;" d="M256.001,34.994l-20.9,230.665l20.9,230.665c127.393,0,230.665-103.273,230.665-230.665
	S383.394,34.994,256.001,34.994z"/>
<path style="fill:#7ACDFF;" d="M25.335,265.659c0,127.393,103.273,230.665,230.665,230.665V34.994
	C128.607,34.994,25.335,138.266,25.335,265.659z"/>
<path style="fill:#027ACD;" d="M430.189,91.471C383.661,44.943,321.801,19.32,256.001,19.32l0,0L245.55,265.659l10.451,246.339l0,0
	c65.8,0,127.661-25.623,174.188-72.151s72.151-108.389,72.151-174.189S476.717,137.999,430.189,91.471z M446.45,166.001
	c13.365,25.435,21.786,53.858,23.967,83.984h-86.939c-1.155-27.929-5.33-56.734-12.018-83.984H446.45z M426.339,134.653h-63.934
	c-3.656-10.911-7.726-21.372-12.182-31.185c-7.124-15.693-14.992-29.332-23.443-40.813
	C366.581,76.57,401.073,101.881,426.339,134.653z M271.675,54.343c17.745,8.188,35.356,29.816,50.005,62.083
	c2.65,5.836,5.147,11.932,7.493,18.226h-57.499V54.343H271.675z M271.675,166.001h67.455c7.2,26.935,11.722,55.89,12.969,83.984
	h-80.424L271.675,166.001L271.675,166.001z M271.675,281.334h80.424c-1.248,28.094-5.77,57.051-12.969,83.985h-67.455V281.334z
	 M271.675,476.977v-80.309h57.499c-2.346,6.294-4.843,12.39-7.493,18.226C307.03,447.16,289.42,468.788,271.675,476.977z
	 M326.781,468.666c8.453-11.482,16.319-25.12,23.443-40.813c4.456-9.813,8.526-20.274,12.181-31.185h63.935
	C401.074,429.442,366.582,454.749,326.781,468.666z M446.45,365.318h-74.99c6.688-27.25,10.863-56.056,12.018-83.985h86.939
	C468.236,311.46,459.815,339.881,446.45,365.318z"/>
<path style="fill:#3EAFF5;" d="M81.812,91.471C35.284,137.999,9.66,199.859,9.66,265.659S35.284,393.32,81.811,439.849
	C128.339,486.376,190.2,512,255.999,512V19.32C190.2,19.32,128.34,44.943,81.812,91.471z M185.819,62.442
	c-8.427,11.552-16.245,25.297-23.291,41.132c-4.346,9.767-8.316,20.193-11.881,31.078H85.66
	C111.053,101.712,145.765,76.313,185.819,62.442z M65.551,166.001h76.257c-6.509,27.199-10.572,56.002-11.694,83.984H41.583
	C43.765,219.858,52.186,191.438,65.551,166.001z M65.551,365.318c-13.365-25.437-21.786-53.857-23.968-83.985h88.531
	c1.122,27.983,5.185,56.785,11.694,83.985L65.551,365.318L65.551,365.318z M85.66,396.666h64.987
	c3.565,10.886,7.535,21.311,11.881,31.078c7.046,15.835,14.863,29.58,23.291,41.132C145.765,455.006,111.053,429.607,85.66,396.666z
	 M240.326,476.926c-17.545-8.215-34.854-29.783-49.156-61.927c-2.609-5.863-5.066-11.996-7.373-18.334h56.53v80.26H240.326z
	 M240.326,365.318h-66.239c-6.996-26.878-11.388-55.828-12.597-83.985h78.836L240.326,365.318L240.326,365.318z M240.326,249.985
	H161.49c1.209-28.156,5.602-57.106,12.597-83.984h66.239V249.985z M183.796,134.653c2.307-6.338,4.765-12.47,7.374-18.334
	c14.303-32.144,31.612-53.71,49.156-61.926v80.26h-56.53V134.653z"/>
<path style="fill:#D61322;" d="M432.608,0l-20.9,82.551l20.9,92.855c0,0,62.681-50.043,62.681-112.724
	C495.288,28.063,467.225,0,432.608,0z"/>
<path style="fill:#EC2533;" d="M369.927,62.681c0,62.681,62.681,112.724,62.681,112.724V0C397.99,0,369.927,28.063,369.927,62.681z"
	/>
<path style="fill:#FFC222;" d="M432.608,28.736l-20.9,33.945l20.9,33.945c18.717,0,33.945-15.228,33.945-33.945
	C466.552,43.964,451.325,28.736,432.608,28.736z"/>
<path style="fill:#FEDF77;" d="M398.663,62.681c0,18.717,15.228,33.945,33.945,33.945v-67.89
	C413.89,28.736,398.663,43.964,398.663,62.681z"/>
<g>
</g>
<g>
</g>
<g>
</g>
<g>
</g>
<g>
</g>
<g>
</g>
<g>
</g>
<g>
</g>
<g>
</g>
<g>
</g>
<g>
</g>
<g>
</g>
<g>
</g>
<g>
</g>
<g>
</g>
</svg>
